<?xml version="1.0" encoding="UTF-8" standalone="no"?>
<!-- Generator: Adobe Illustrator 16.0.0, SVG Export Plug-In . SVG Version: 6.00 Build 0)  -->

<svg
   xmlns:dc="http://purl.org/dc/elements/1.1/"
   xmlns:cc="http://creativecommons.org/ns#"
   xmlns:rdf="http://www.w3.org/1999/02/22-rdf-syntax-ns#"
   xmlns:svg="http://www.w3.org/2000/svg"
   xmlns="http://www.w3.org/2000/svg"
   xmlns:sodipodi="http://sodipodi.sourceforge.net/DTD/sodipodi-0.dtd"
   xmlns:inkscape="http://www.inkscape.org/namespaces/inkscape"
   version="1.1"
   id="Layer_1"
   x="0px"
   y="0px"
   width="142.17"
   height="196.98833"
   viewBox="0 0 142.17 196.98833"
   enable-background="new 0 0 792 612"
   xml:space="preserve"
   inkscape:version="0.48.4 r9939"
   sodipodi:docname="logo-words-blue.svg"><metadata
     id="metadata129"><rdf:RDF><cc:Work
         rdf:about=""><dc:format>image/svg+xml</dc:format><dc:type
           rdf:resource="http://purl.org/dc/dcmitype/StillImage" /></cc:Work></rdf:RDF></metadata><defs
     id="defs127" /><sodipodi:namedview
     pagecolor="#ffffff"
     bordercolor="#666666"
     borderopacity="1"
     objecttolerance="10"
     gridtolerance="10"
     guidetolerance="10"
     inkscape:pageopacity="0"
     inkscape:pageshadow="2"
     inkscape:window-width="521"
     inkscape:window-height="428"
     id="namedview125"
     showgrid="false"
     inkscape:zoom="0.38562092"
     inkscape:cx="86.425984"
     inkscape:cy="94.06489"
     inkscape:window-x="0"
     inkscape:window-y="27"
     inkscape:window-maximized="0"
     inkscape:current-layer="Layer_1" /><path
     d="M 52.68397,76.886996"
     id="path41"
     inkscape:connector-curvature="0"
     style="fill:#ffffff" /><path
     d="M 51.33797,69.882996"
     id="path43"
     inkscape:connector-curvature="0"
     style="fill:#ffffff" /><g
     id="g45"
     transform="translate(-309.574,-208.263)"><g
       id="g47"><path
         d="m 322.564,374.516 h -1.669 v -4.717 h 9.034 v 22.497 h 1.742 v 4.717 h -8.49 l -0.617,-1.343 c -0.472,0.436 -2.068,1.67 -4.572,1.67 -5.115,0 -8.418,-4.536 -8.418,-9.58 0,-5.66 3.955,-9.252 8.418,-9.252 2.576,0 3.883,0.943 4.572,1.378 v -5.37 z m -2.576,17.708 c 1.415,0 2.721,-1.778 2.576,-4.645 0,-2.468 -1.234,-4.354 -2.612,-4.354 -1.524,0 -2.577,1.778 -2.577,4.535 0,2.178 1.017,4.464 2.613,4.464 z"
         id="path49"
         inkscape:connector-curvature="0"
         style="fill:#ffffff" /><path
         d="m 333.887,380.395 c 1.451,-0.871 4.572,-2.576 7.91,-2.576 4.354,0 9.833,1.633 9.833,7.475 v 7.075 h 2.177 v 4.645 h -7.765 l -0.871,-1.633 c -1.343,1.851 -3.592,2.322 -4.898,2.322 -3.446,0 -7.147,-1.851 -7.147,-6.06 0,-4.101 3.446,-6.677 7.547,-6.677 2.141,0 3.41,1.053 3.592,1.271 v -1.271 c 0,-1.633 -1.487,-2.031 -3.447,-2.031 -2.141,0 -4.027,0.907 -5.406,1.669 l -1.525,-4.209 z m 10.377,11.393 v -1.379 c -0.108,-0.182 -0.617,-1.053 -2.141,-1.053 -1.451,0 -2.104,0.799 -2.104,1.924 0,1.016 0.835,1.705 1.923,1.705 1.088,0 1.996,-0.653 2.322,-1.197 z"
         id="path51"
         inkscape:connector-curvature="0"
         style="fill:#ffffff" /><path
         d="m 367.125,383.479 h -1.67 v -4.608 h 9.217 v 4.499 h -1.742 l -6.894,16.765 c -1.052,2.249 -2.54,5.152 -7.802,5.116 -1.887,-0.109 -3.302,-0.871 -4.391,-1.814 l 2.722,-4.282 c 0.617,0.545 1.343,1.089 2.104,1.234 1.125,0.218 1.959,-0.835 2.322,-1.924 l 0.508,-1.523 -7.075,-13.426 h -1.487 v -4.645 h 11.176 v 4.608 h -1.705 l 2.357,5.66 2.36,-5.66 z"
         id="path53"
         inkscape:connector-curvature="0"
         style="fill:#ffffff" /><path
         d="m 375.943,378.87 h 1.959 v -3.338 l 6.677,-4.407 v 7.745 h 3.447 v 4.717 h -3.447 v 6.459 c 0,1.234 -0.254,2.903 1.161,2.903 0.472,0 1.597,-0.327 2.286,-0.617 v 4.645 c -1.089,0.436 -3.556,0.689 -4.391,0.689 -5.442,0 -5.624,-2.976 -5.733,-7.62 v -6.459 h -1.959 v -4.717 z"
         id="path55"
         inkscape:connector-curvature="0"
         style="fill:#ffffff" /><path
         d="M 400.109,397.013 H 389.84 v -4.753 h 1.597 v -8.673 h -1.561 v -4.717 h 6.821 l 1.089,2.322 c 0.943,-1.741 1.887,-3.229 5.624,-3.229 v 6.531 c -3.266,0 -5.116,0.835 -5.116,4.028 v 3.737 h 1.814 v 4.754 z"
         id="path57"
         inkscape:connector-curvature="0"
         style="fill:#ffffff" /><path
         d="m 414.661,397.013 h -10.16 v -4.753 h 1.523 v -8.673 h -1.523 v -4.717 h 8.418 v 13.39 h 1.742 v 4.753 z"
         id="path59"
         inkscape:connector-curvature="0"
         style="fill:#ffffff" /><path
         d="m 415.387,399.662 h 1.523 v -15.966 h -1.523 v -4.826 h 8.31 l 0.616,1.271 c 0.689,-0.509 2.214,-1.561 4.391,-1.561 5.661,0 8.563,4.354 8.563,9.507 0,5.77 -3.592,9.325 -8.272,9.325 -3.012,0 -4.464,-1.197 -4.718,-1.415 v 3.665 h 1.96 v 4.753 h -10.85 v -4.753 z m 11.466,-15.966 c -1.415,0 -2.721,1.778 -2.576,4.645 0,2.468 1.233,4.354 2.612,4.354 1.524,0 2.577,-1.778 2.577,-4.536 0,-2.177 -1.017,-4.463 -2.613,-4.463 z"
         id="path61"
         inkscape:connector-curvature="0"
         style="fill:#ffffff" /><path
         d="m 448.443,397.013 h -10.269 v -4.753 h 1.597 v -8.673 h -1.561 v -4.717 h 6.821 l 1.089,2.322 c 0.943,-1.741 1.887,-3.229 5.624,-3.229 v 6.531 c -3.266,0 -5.116,0.835 -5.116,4.028 v 3.737 h 1.814 v 4.754 z"
         id="path63"
         inkscape:connector-curvature="0"
         style="fill:#ffffff" /></g></g><g
     id="g65"
     transform="translate(-309.574,-208.263)"><g
       id="g67"><path
         d="m 362.992,296.088 v -45.785 h -4.57 -0.674 -5.439 c 0,0 -0.012,16.677 1.442,27.329 1.624,11.892 3.56,18.417 7.725,18.417 v 0.041 l 1.516,-0.002 z"
         id="path69"
         inkscape:connector-curvature="0"
         style="fill:#ffffff" /><polygon
         points="388.416,296.058 388.416,250.303 383.908,250.303 371.861,250.303 367.256,250.303 367.256,296.083 "
         id="polygon71"
         style="fill:#ffffff" /><path
         d="m 402.632,250.303 h -4.698 -0.284 -4.97 v 45.749 l 1.917,-0.002 c 4.164,0 6.101,-6.526 7.724,-18.417 1.453,-10.653 0.311,-27.33 0.311,-27.33 z"
         id="path73"
         inkscape:connector-curvature="0"
         style="fill:#ffffff" /></g></g><path
     d="M 96.82697,111.573 V 71.348996 c 0,0 -1.745,11.359 -3.13,14.111 -2.706,5.388 -6.826,5.738 -6.826,5.738 l -3.766,-0.028 v 7.105 l -2.133,1.511 -2.131,-1.511 v -7.137 l -10.649,-0.08 c 0,0 0,-0.006 0,-0.006 l -0.438,0.003 -0.464,-0.003 c 0,0 0,0.005 0,0.007 l -9.608,0.076 v 7.14 l -2.131,1.511 -2.133,-1.511 v -7.106 l -3.728,0.029 c 0,0 -4.118,-0.35 -6.826,-5.738 -1.384,-2.752 -3.13,-14.111 -3.13,-14.111 V 111.573 c 0,0 -0.426,5.167 1.742,9.478 2.486,4.949 6.533,7.171 10.266,7.171 3.733,0 16.086,0 16.086,0 0,0 13.26,0 16.99,0 3.734,0 7.781,-2.222 10.268,-7.171 2.168,-4.311 1.741,-9.478 1.741,-9.478 z m -15.885,-5.946 0.034,9.435 -25.329,-0.07 v -9.364"
     id="path75"
     inkscape:connector-curvature="0"
     style="fill:#ffffff" /><polygon
     points="367.256,246.705 367.256,237.92 377.684,237.92 378.242,237.92 388.67,237.92 388.67,246.705 392.934,246.705 392.934,237.92 388.67,233.656 378.242,233.656 377.684,233.656 367.256,233.656 362.992,237.92 362.992,246.705 "
     id="polygon77"
     style="fill:#ffffff"
     transform="translate(-309.574,-208.263)" /><path
     d="M 68.82197,-3.8404719e-6 0.08697,39.684996 V 119.055 l 68.735,39.685 68.737,-39.685 V 39.684996 L 68.82197,-3.840472e-6 z M 128.87797,113.932 l -60.034,34.66 -60.033,-34.66 V 44.609996 l 60.033,-34.6609998 60.034,34.6609998 V 113.932 z"
     id="path79"
     inkscape:connector-curvature="0"
     style="fill:#ffffff" /><path
     d="m 99.00797,168.904 2.886,-8.132 c 0.205,-0.423 0.33,-0.891 0.33,-1.393 0,-1.774 -1.438,-3.212 -3.212,-3.212 -1.773,0 -3.211,1.438 -3.211,3.212 0,0.252 0.036,0.495 0.091,0.73 h -0.01 l 0.049,0.138 c 0.046,0.163 0.098,0.321 0.168,0.473 l 2.905,8.184 z"
     id="path121"
     inkscape:connector-curvature="0"
     style="fill:#ffffff" /><circle
     cx="408.586"
     cy="367.61401"
     r="1.906"
     id="circle123"
     sodipodi:cx="408.586"
     sodipodi:cy="367.61401"
     sodipodi:rx="1.906"
     sodipodi:ry="1.906"
     style="fill:#ffffff"
     transform="translate(-309.574,-208.263)" /></svg>
